<svg xmlns="http://www.w3.org/2000/svg" viewBox="0 0 115.36 112.76"><defs><style>.cls-1{fill:#fff;}</style></defs><title>Sem título-1</title><g id="Camada_1" data-name="Camada 1"><path class="cls-1" d="M95.7,147.27c-11.89.48-23.61-.4-34.57-5.54-17.94-8.41-27.55-22.33-27.8-42.43a54,54,0,0,1,4.76-23.24,9.72,9.72,0,0,0,.41-7.15c-1.44-5.1-2.67-10.28-3.64-15.5-.77-4.09-.89-8.26.78-12.28,2.1-5.07,6.16-7.28,11.55-6.28,5.66,1.06,10.65,3.71,15.57,6.52a53.23,53.23,0,0,1,4.62,3,7.42,7.42,0,0,0,6.91,1.24c10.61-2.81,21.33-3.22,32-.25,2.6.72,4.75,0,7-1.48,5.65-3.81,11.5-7.29,18.34-8.7,7.48-1.55,12.42,1.85,13.26,9.42a48.83,48.83,0,0,1-2.67,21.11,10.94,10.94,0,0,0,.77,8.94c5.46,11.44,7.15,23.43,4.27,35.92-3.08,13.32-11,22.92-22.86,29.36A63,63,0,0,1,95.7,147.27Zm-4.11-3.84a63.47,63.47,0,0,0,20.69-2.93c8.59-2.62,16.33-6.74,22.32-13.56,7.37-8.41,10.23-18.4,10-29.51-.35-14.64-6.08-26.78-16.81-36.53-9.06-8.24-19.91-12.41-32.09-13.42C84,46.53,73.08,48.58,63,54.5,48.55,63,40,75.6,37.63,92.45,35,111.27,43.48,129.35,62,137.64A67.23,67.23,0,0,0,91.59,143.43ZM42.35,66.58C46,63.18,49.3,59.69,53,56.69s8-5.63,12.4-8.68c-1.74-1.19-3-2.24-4.42-3-3.22-1.74-6.46-3.45-9.79-4.95a14.92,14.92,0,0,0-4.81-1.15c-4.84-.43-6.83,1-7.48,5.84A34.74,34.74,0,0,0,39,54.14C39.62,58.48,40.08,63,42.35,66.58ZM114.71,48c9.48,4,16.45,10.22,23.18,17.67,2.32-6.83,3.94-13,3.43-19.57-.46-5.86-3.27-8.22-8.89-7.09C126.06,40.28,120.56,43.54,114.71,48Z" transform="translate(-33.32 -34.62)"/><path class="cls-1" d="M90.67,94.36c5.33,0,10.67,0,16,0a18.3,18.3,0,0,1-.1,36.6c-10.5-.06-21,.12-31.5-.07-10.35-.19-17.64-8-17.85-18.29-.22-11.06,9.44-18.36,18-18.23,5.17.08,10.33,0,15.5,0Zm-.18,32.87v0c4.5,0,9,.08,13.49,0a28.15,28.15,0,0,0,6.4-.84,14.23,14.23,0,0,0-.3-27.54,25.7,25.7,0,0,0-5.92-.77c-8.83-.08-17.66-.18-26.48.06A22.69,22.69,0,0,0,69,100c-7.83,3.61-10.28,13.07-5.64,20.31,3,4.62,7.34,6.67,12.61,6.85C80.82,127.36,85.66,127.23,90.49,127.23Z" transform="translate(-33.32 -34.62)"/><path class="cls-1" d="M121,82.79a4.61,4.61,0,0,1-4.42,5,4.94,4.94,0,0,1-5.15-4.91,4.52,4.52,0,0,1,4.76-4.67C119.16,78.21,121,79.91,121,82.79Z" transform="translate(-33.32 -34.62)"/><path class="cls-1" d="M65.38,78.24a4.74,4.74,0,0,1,5.05,4.85,5,5,0,0,1-4.79,4.73,5.4,5.4,0,0,1-5.1-5A4.68,4.68,0,0,1,65.38,78.24Z" transform="translate(-33.32 -34.62)"/><path class="cls-1" d="M102.88,108.28a4.18,4.18,0,0,1,4.57,4.08,4.51,4.51,0,0,1-4.3,4.48,4.57,4.57,0,0,1-4.62-4.19A4.35,4.35,0,0,1,102.88,108.28Z" transform="translate(-33.32 -34.62)"/><path class="cls-1" d="M82.9,112.72a4.22,4.22,0,0,1-4.61,4.12,4.29,4.29,0,0,1,.37-8.56A4.08,4.08,0,0,1,82.9,112.72Z" transform="translate(-33.32 -34.62)"/></g><g id="Camada_2" data-name="Camada 2"><path class="cls-1" d="M91,134.21s0,12.16,22.2,12.4,23.62-14.15,21.09-17.83-9.78-4.85-9.78-4.85c6.57,1.28,3.52,10.52-4.13,9.82S107.69,121.24,101,121.24s-10,6.23-10,6.23-3.24-6.23-10-6.23-11.77,11.81-19.41,12.51-10.7-8.54-4.13-9.82c0,0-7.26,1.16-9.78,4.85s-1.07,18.06,21.09,17.83S91,134.21,91,134.21Z" transform="translate(-33.32 -34.62)"/></g></svg>