<svg xmlns="http://www.w3.org/2000/svg" viewBox="0 0 330.64 330.64"><defs><style>.cls-1{fill:#202133;}.cls-2{fill:#ff9f9f;}.cls-3{fill:#c15656;}.cls-4{fill:#f79494;}.cls-5{fill:#f98c8c;}.cls-6,.cls-8{fill:none;stroke-miterlimit:10;}.cls-6{stroke:#c15656;}.cls-7{fill:#ffce00;}.cls-8{stroke:#e29000;stroke-width:2px;}.cls-9{fill:#e29000;}.cls-10{fill:#fff;}</style></defs><title>mr pig</title><g id="Camada_4" data-name="Camada 4"><path class="cls-1" d="M273.32,253.18s.31-17.65,17.33-19.15c0,0,13.43,9.24-.38,31.33-17-1.5-16.95-5.48-16.95-5.48"/><path class="cls-2" d="M311.07,225.74c6-6.83,6.66-20.22,5.62-36.45-7.56,0-15.29.27-19.14-.46-9.34-18.59-22.77-33.1-41.89-41.9.64-12.14.7-16.11,6.22-22.59-18.6-3-28.41,3.87-37.63,14.45-8.27-8.6-21.8-14.74-36.65-19.37-25.93-7.68-70.69-10-101.43-.49-18.55,5.84-35.1,15.54-48.15,29.18-8.51-.65-6-17.85,5-15.07-20.34-9.06-29.4,21.25-12,25.54-14.5,20.69-15.86,65.15,3.5,81.47,2.83,24.51,7.17,47.52,19.08,62.94H92.74c-1-7.94-2.07-16.42-1.17-25.69,23.75,5.39,52,7,80.3,4.66,4.38,7.26,8.6,14.64,13.83,21h38.72c-1.42-10.25-2.95-21-.17-31.51C233.49,269.69,278.69,259.49,311.07,225.74ZM260.4,171.81a9.62,9.62,0,1,1-9.61,9.62A9.63,9.63,0,0,1,260.4,171.81Z"/><circle class="cls-3" cx="260.4" cy="181.43" r="9.62"/><path class="cls-4" d="M171.87,282s-45.05,4.28-80.21-4.06A109.39,109.39,0,0,0,92.83,303H53.75s-13.37-11.66-19.06-61.48C33.9,231,31.3,280.27,171.87,282Z"/><path class="cls-4" d="M171.87,282s30.5,21.23,52.55,21H185.7S176.79,291.74,171.87,282Z"/><path class="cls-5" d="M23.18,140.11S20.31,152.05,31,158.58C31,158.58,18.06,156.18,23.18,140.11Z"/><path class="cls-6" d="M239.06,154.84s5.71,17.65-10.88,22.12-18.55,9.64-18.55,9.64c-3.14.79-4.65-18.11,2.13-24.28"/><path class="cls-7" d="M106.44,116a50.79,50.79,0,1,1,82.48-39.68c0,17.5-8.09,32.41-21.57,41.54,0,0-20.92-4.14-27.87-2.68Z"/><path class="cls-8" d="M115.35,115.74A46.5,46.5,0,0,1,92.76,76.28a45.38,45.38,0,0,1,90.76,0c0,17.67-9.14,32.28-23.89,39.78"/><path class="cls-9" d="M140.46,70.4c.89.18,1.76.34,2.63.53a28.08,28.08,0,0,1,8.74,3.31,16,16,0,0,1,8,13.37,24.27,24.27,0,0,1-.86,7.77,15.66,15.66,0,0,1-8.9,10.2,25,25,0,0,1-8.42,2l-1.16.1c0,2.9,0,4.54,0,7.46-1.74,0-3.43-.48-5.15-.48v-7c-.74-.09-1.45-.17-2.15-.27a22.37,22.37,0,0,1-8.8-2.9,15.37,15.37,0,0,1-6.57-8.1A25.46,25.46,0,0,1,116.48,87a.78.78,0,0,1,.06-.19l6.77.19c0,.24,0,.44,0,.65a21.65,21.65,0,0,0,.46,4.88,9.35,9.35,0,0,0,7,7.39c.71.21,1.44.39,2.17.53s1.52.23,2.32.35V76.15l-2.2-.74a40.75,40.75,0,0,1-6.7-2.77,15.75,15.75,0,0,1-6.51-6.38,17.11,17.11,0,0,1-1.77-5.67,23.16,23.16,0,0,1-.2-4.16,15.61,15.61,0,0,1,4-10.24,15.92,15.92,0,0,1,6.33-4.14,24.15,24.15,0,0,1,6.45-1.4l.43,0,.25,0V36.11h5.13v4.45c.71.07,1.38.13,2.05.22A21.26,21.26,0,0,1,149.9,43a14.5,14.5,0,0,1,7.52,9.63,20.28,20.28,0,0,1,.61,5.75l-6.77-.1c0-.72-.08-1.39-.14-2.06a10.47,10.47,0,0,0-.93-3.6,7.75,7.75,0,0,0-3.72-3.69,15.65,15.65,0,0,0-6-1.43Zm0,30.45.95-.08a19.33,19.33,0,0,0,5.24-1.18,9.1,9.1,0,0,0,5.83-6.54A18.48,18.48,0,0,0,153,88a9.82,9.82,0,0,0-.4-2.53,9.06,9.06,0,0,0-4.21-5.31,23.21,23.21,0,0,0-7.88-2.76Zm-5.21-31.92V47.47a15.51,15.51,0,0,0-6.08,1.61,7.88,7.88,0,0,0-4.26,5.8,15.23,15.23,0,0,0,.08,5.63,8.41,8.41,0,0,0,4.22,5.87,25.62,25.62,0,0,0,4.37,2Z"/><path class="cls-3" d="M189.57,123C139.62,108.23,94,120,87.29,121.93a.89.89,0,0,1-1.09-.6l-.06-.17a.9.9,0,0,1,.6-1.16c6.88-1.94,53-13.82,103.39,1.07a.91.91,0,0,1,.61,1.13l-.06.19A.9.9,0,0,1,189.57,123Z"/><path class="cls-1" d="M246.12,145.1c8.77,1.28,17.12,2.81,24.26,4.43l-.12-1.33-1.94-22.45s.09-6.74-7.57-7.86l-20.89-3c-7.65-1.11-9.5,5.38-9.5,5.38l-8.76,22.2C228.91,142.9,237.35,143.82,246.12,145.1Z"/><path class="cls-1" d="M289.61,160.24c-.44,3-19.48-3.48-44.16-7.08s-45.65-2.91-45.21-5.95,20.81-2.59,45.49,1S290.06,157.2,289.61,160.24Z"/><path class="cls-10" d="M271.35,153a10.4,10.4,0,0,0-1-3.45c-1.09-1-47.57-8.31-48.78-7.11l-1.83,3.05C232,146.12,258.52,149.73,271.35,153Z"/><path class="cls-1" d="M317.1,203.34c0-2.43-1.8-7.42-10-6.26-6.66.95-11.8,11.78-19.44,12.46S277,201,283.59,199.71c0,0-8.16-.78-9.79,4.83-1.25,4.29-1.7,17.52,21.05,17.88C318.51,222.8,317.1,205.77,317.1,203.34Z"/><path class="cls-1" d="M263.78,253.18s-3.45-13.35-20.48-14.85c0,0-13.8,16.92,0,39,17-1.5,20.48-14.85,20.48-14.85"/><path class="cls-1" d="M277.91,260.66c0,2.22-.48,3.45-4,4l-6.59.69a4,4,0,0,1-4-4v-7a4,4,0,0,1,4-4l7.07.42c2.71.5,4,1.8,4,4Z"/></g></svg>